HIERARCHY
ROOT pelvis
{
  OFFSET 0 100 0
  CHANNELS 6 Xposition Yposition Zposition Zrotation Xrotation Yrotation
  JOINT pelvis_right_femur
  {
    OFFSET -10.78128 -3.44521 -0.5502486
    CHANNELS 3 Zrotation Xrotation Yrotation
    JOINT right_femur_tibia
    {
      OFFSET -0.8047443 -44.0398 -0.1307829
      CHANNELS 3 Zrotation Xrotation Yrotation
      JOINT right_tibia_foot
      {
        OFFSET 3.006224 -47.83518 -5
        CHANNELS 3 Zrotation Xrotation Yrotation
        End Site
        {
          OFFSET 0 -5 15
        }
      }
    }
  }
  JOINT pelvis_left_femur
  {
    OFFSET 10.78128 -3.44521 -0.5502486
    CHANNELS 3 Zrotation Xrotation Yrotation
    JOINT left_femur_tibia
    {
      OFFSET 0.8047443 -44.0398 -0.1307829
      CHANNELS 3 Zrotation Xrotation Yrotation
      JOINT left_tibia_foot
      {
        OFFSET -4.370144 -48.10324 -4.275266
        CHANNELS 3 Zrotation Xrotation Yrotation
        End Site
        {
          OFFSET 0 -5 15
        }
      }
    }
  }
  JOINT pelvis_spine1
  {
    OFFSET 0 6.468898 -3.129235
    CHANNELS 3 Zrotation Xrotation Yrotation
    JOINT spine1
    {
      OFFSET 0 23.15396 4.99043
      CHANNELS 3 Zrotation Xrotation Yrotation
      JOINT spine2
      {
        OFFSET 0 20.79997 -5.064912
        CHANNELS 3 Zrotation Xrotation Yrotation
        JOINT neck
        {
          OFFSET 0 14.38658 9.616178
          CHANNELS 3 Zrotation Xrotation Yrotation
          End Site
          {
            OFFSET 0 20 0
          }
        }
      }
      JOINT right_manubrium
      {
        OFFSET -5.722621 16.35077 3.967754
        CHANNELS 3 Zrotation Xrotation Yrotation
        JOINT right_clavicle
        {
          OFFSET -13.16364 1.694482 -4.693211
          CHANNELS 3 Zrotation Xrotation Yrotation
          JOINT right_humerus
          {
            OFFSET -28.5034 -0.3100689 -2.792744
            CHANNELS 3 Zrotation Xrotation Yrotation
            JOINT right_radius
            {
              OFFSET -25.15693 0.02248979 -1.271978
              CHANNELS 3 Zrotation Xrotation Yrotation
              End Site
              {
                OFFSET -15 0 0
              }
            }
          }
        }
      }
      JOINT left_manubrium
      {
        OFFSET 5.722621 16.35077 3.967754
        CHANNELS 3 Zrotation Xrotation Yrotation
        JOINT left_clavicle
        {
          OFFSET 13.16364 1.694482 -4.693211
          CHANNELS 3 Zrotation Xrotation Yrotation
          JOINT left_humerus
          {
            OFFSET 29.39168 -1.063119 -2.237045
            CHANNELS 3 Zrotation Xrotation Yrotation
            JOINT left_radius
            {
              OFFSET 24.59957 -0.9528479 0.9047498
              CHANNELS 3 Zrotation Xrotation Yrotation
              End Site
              {
                OFFSET 15 -0 -0
              }
            }
          }
        }
      }
    }
  }
}
MOTION
Frames: 13
Frame Time: 0.0416666666667
0 103.5113 0 -0.590925 -0.8864607 -0.8073173 2.641274 -6.155031 9.698384 -0 29.74485 -0 -6.03912 -14.01818 -4.190074 -4.686723 8.718941 -20.74376 -0 7.216174 -0 20.06276 -13.21293 26.52633 -2.57197 -6.187677 5.967944 2.87321 10.27254 -5.270283 0.5921898 21.51858 8.186861 6.272335 -23.41655 7.41559 9.315493 -14.56374 16.72969 79.30645 26.09301 -17.06394 -0 0 20.65004 -8.63308 12.06848 -0.03139384 6.516206 -20.9503 -6.319899 -95.54034 15.16084 15.6358 -0 0 2.460213 14.38489 19.60583 -9.443913
0.4656556 103.2457 0.8681593 -0.6463018 -0.9435155 -1.437476 3.00802 -10.0784 9.719931 -0 36.07611 -0 -6.062804 -13.24739 -5.030311 -5.108989 9.621533 -20.41308 -0 6.692962 -0 19.64973 -13.88877 26.69443 -3.086161 -5.262728 5.570636 2.911097 10.16745 -5.515813 0.7492576 21.07197 8.367209 6.548354 -23.72223 7.574123 9.277435 -14.83637 16.34477 79.21699 25.9696 -16.53715 -0 0 21.10052 -9.011631 11.87011 0.3895943 6.227649 -20.55752 -6.402313 -95.3396 15.76866 15.94866 -0 0 2.734977 13.83821 19.25979 -8.583653
0.8836256 103.2236 2.012463 -0.7058516 -1.002153 -2.095842 3.596744 -14.10475 9.642294 -0 40.89858 -0 -6.327424 -12.68189 -5.804828 -4.957398 10.58195 -20.3071 -0 5.986165 -0 19.00741 -14.62457 26.49788 -3.465159 -4.321427 5.11238 3.0383 10.05514 -5.92009 0.6589785 20.61806 8.681978 6.733717 -23.87943 7.621415 9.293893 -15.10428 15.80699 79.13177 25.80597 -16.1529 -0 0 21.55527 -9.434391 11.65576 0.8628981 6.041121 -20.27383 -6.442023 -95.03277 16.48979 16.21067 -0 0 3.091773 13.47358 18.93364 -7.623491
1.208624 103.2904 3.451854 -0.7421975 -1.029241 -2.431378 4.598806 -18.07954 9.410458 -0 43.12489 -0 -6.726937 -12.09676 -6.233114 -5.391779 11.94408 -19.61136 -0 5.530232 -0 18.17708 -15.10482 26.50522 -3.967001 -3.400735 4.59132 3.002222 9.915144 -6.48451 0.417645 20.05338 8.985037 6.823586 -23.83292 7.458574 9.35088 -15.2524 15.15931 79.26468 25.62749 -16.02434 -0 0 21.90126 -9.827178 11.43199 1.332298 5.728236 -20.10804 -6.468495 -94.73836 17.24909 16.41242 -0 0 3.527966 13.09868 18.53354 -6.62848
1.543359 103.2996 5.160787 -0.7789754 -1.054477 -2.759721 5.553191 -21.72851 8.950978 -0 42.34644 -0 -7.097147 -11.08819 -6.030533 -5.614789 13.30971 -19.02511 -0 4.995568 -0 17.27914 -15.74567 26.33789 -4.280077 -2.493759 4.383504 3.276853 9.58669 -6.861294 0.621927 19.82948 9.344736 7.132484 -23.91488 7.89863 8.880871 -15.50346 14.48667 79.31771 25.52577 -15.92948 -0 0 22.1579 -10.19327 11.2075 1.802549 5.641721 -20.00322 -6.614092 -94.54938 17.99632 16.26596 -0 0 3.360282 12.71388 18.1284 -5.802567
1.849534 103.0953 7.085541 -0.8038905 -1.064935 -2.938133 6.394384 -24.85735 8.459409 -0 39.16736 -0 -7.452917 -9.502223 -5.343572 -5.830852 14.76196 -18.44265 -0 4.537708 -0 16.37295 -16.60961 25.9898 -4.509695 -1.572382 4.408689 3.679562 9.269807 -7.092602 0.7525365 19.64118 9.681105 7.29302 -23.98798 8.349574 8.310168 -15.26059 13.88274 79.72601 25.62248 -16.50498 -0 0 21.45767 -10.28054 11.03329 1.977613 5.770012 -20.25114 -6.748808 -94.27943 18.7882 15.69173 -0 0 2.406229 12.4075 17.73835 -5.203387
2.180716 102.6424 9.339297 -0.8175281 -1.062923 -2.987529 6.96217 -27.4038 7.947327 -0 33.37518 -0 -7.667185 -7.858041 -4.472214 -6.09322 16.34425 -17.81531 -0 4.288086 -0 15.4537 -17.67417 25.42203 -4.709766 -0.7069336 4.438625 4.035002 8.863869 -7.336746 0.7454863 19.40201 9.903025 7.351068 -23.83974 8.467664 7.750321 -15.06518 13.53272 80.24732 25.93002 -17.19166 -0 0 20.14942 -10.18234 10.91274 1.983796 6.087114 -20.53273 -6.90691 -94.00795 19.5873 14.94137 -0 0 0.89424 12.17804 17.35666 -4.782591
2.504309 101.9927 11.99213 -0.8053212 -1.034227 -2.738925 7.284396 -29.33641 7.502798 -0 26.64578 -0 -7.911678 -6.258785 -3.529995 -6.307753 17.97941 -17.16279 -0 4.294243 -0 14.42801 -18.81865 24.55174 -4.749706 0.02603424 4.471578 4.381696 8.427441 -7.574952 0.7048532 19.28249 10.10492 7.366352 -23.57301 8.549856 7.156705 -14.85721 13.34896 80.93144 26.43627 -18.01703 -0 0 18.32468 -9.900435 10.85615 1.857876 6.500473 -20.92078 -7.08376 -93.59321 20.38537 14.0388 0 0 -1.052463 12.02087 16.97572 -4.515185
2.793665 101.2566 15.12946 -0.7590898 -0.9704946 -2.091079 7.428506 -30.7828 7.181035 -0 20.77617 -0 -8.250262 -4.930958 -2.781913 -6.445648 19.76566 -16.48769 -0 4.749846 -0 13.17129 -19.87042 23.30424 -4.667075 0.5954939 4.478511 4.626235 8.000198 -7.798946 0.6975158 19.31463 10.25481 7.406334 -23.24497 8.593744 6.59239 -14.55075 13.18505 81.84074 27.05408 -19.02527 -0 0 16.14557 -9.474608 10.8568 1.685338 6.816778 -21.44693 -7.087385 -93.03624 21.12073 13.10296 0 0 -3.175148 11.95887 16.56245 -4.3321
3.05497 100.4886 18.64025 -0.7056067 -0.9003239 -1.362892 7.617023 -31.36986 6.777892 -0 16.4712 -0 -8.786249 -4.003418 -2.213687 -6.567708 21.40273 -15.69357 -0 5.879261 -0 11.56124 -20.54537 21.71428 -4.454954 0.8893311 4.30521 4.80248 7.486086 -8.161818 0.5244584 19.28585 10.52066 7.427609 -22.82876 8.569019 6.184016 -14.35191 13.01953 82.87197 27.72782 -20.06552 -0 0 13.89381 -8.990223 10.90976 1.556533 6.995465 -21.74091 -7.045471 -92.49952 21.78103 12.49466 0 0 -5.114115 11.86207 16.13391 -4.115373
3.290102 99.97229 22.69831 -0.6301794 -0.8070128 -0.3706533 7.549194 -30.93217 6.29892 -0 15.44444 -0 -9.647788 -3.438749 -2.222388 -6.567537 22.61954 -14.82983 -0 8.146644 -0 9.447776 -20.39954 19.76674 -4.139786 1.061419 4.052235 4.894228 7.127168 -8.45216 0.3659652 19.36722 10.74661 7.457111 -22.48485 8.538088 5.940826 -14.24005 12.92787 83.96061 28.42983 -21.01771 -0 0 11.6332 -8.514342 11.00831 1.545292 6.957482 -21.96685 -6.899546 -91.98536 22.34365 12.15281 0 0 -6.864927 11.69707 15.67984 -3.860413
3.505723 99.66331 27.37692 -0.5476007 -0.7056372 0.7115695 7.241486 -29.33337 5.796587 -0 17.0683 -0 -10.76277 -3.16813 -2.65489 -6.710461 23.23254 -13.78632 -0 11.96788 -0 6.847927 -19.02544 17.57021 -3.723201 0.7097862 3.594053 4.901333 6.901332 -8.926982 0.1437472 19.5539 10.92587 7.402423 -22.07798 8.442463 5.681413 -14.15574 12.5241 85.09143 29.02083 -21.92357 -0 0 9.799621 -8.202667 11.13729 1.810934 6.840162 -21.88269 -6.521451 -91.66573 22.77058 12.30861 0 0 -8.342135 11.43141 15.20227 -3.553538
3.793058 99.80849 32.75787 -0.4771098 -0.6188265 1.637192 6.978378 -27.44534 5.461411 -0 19.16473 -0 -11.93156 -3.464674 -3.186576 -6.64646 23.25147 -12.72426 -0 17.43616 -0 3.7983 -15.99863 15.00277 -3.063053 -0.01466731 3.260952 4.751116 6.758655 -9.238288 -0.106669 19.70124 11.04607 7.276369 -21.72352 8.299477 5.393874 -13.96231 12.09444 86.20745 29.51012 -22.72466 -0 0 8.326708 -8.087717 11.28431 2.342682 6.600243 -21.61826 -5.908044 -91.57977 23.08578 12.88018 0 0 -9.591234 11.06047 14.72705 -3.231205
